HIERARCHY
ROOT Hips
{
	OFFSET 0.000000 0.000000 0.000000
	CHANNELS 6 Xposition Yposition Zposition Xrotation Yrotation Zrotation
	JOINT LeftUpLeg_virtual
	{
		OFFSET 0.000000 0.000000 0.000000
		CHANNELS 3 Xrotation Yrotation Zrotation
		JOINT LeftUpLeg
		{
			OFFSET 10.205400 -3.823500 0.155100
			CHANNELS 3 Xrotation Yrotation Zrotation
			JOINT LeftLeg
			{
				OFFSET 0.708757 -12.982077 0.567790
				CHANNELS 3 Xrotation Yrotation Zrotation
				JOINT LeftFoot
				{
					OFFSET -0.708756 -10.717838 -2.184338
					CHANNELS 3 Xrotation Yrotation Zrotation
					JOINT LeftToeBase
					{
						OFFSET 0.108149 -7.191104 7.560241
						CHANNELS 3 Xrotation Yrotation Zrotation
						JOINT LeftToe_End
						{
							OFFSET 0.070230 0.081724 4.490308
							CHANNELS 3 Xrotation Yrotation Zrotation
							End Site
							{
								OFFSET 0 0 0
							}
						}
					}
				}
			}
		}
	}
	JOINT RightUpLeg_virtual
	{
		OFFSET 0.000000 0.000000 0.000000
		CHANNELS 3 Xrotation Yrotation Zrotation
		JOINT RightUpLeg
		{
			OFFSET -10.205400 -3.823500 0.005500
			CHANNELS 3 Xrotation Yrotation Zrotation
			JOINT RightLeg
			{
				OFFSET -0.708756 -12.982134 0.610632
				CHANNELS 3 Xrotation Yrotation Zrotation
				JOINT RightFoot
				{
					OFFSET 0.708754 -10.717769 -1.945823
					CHANNELS 3 Xrotation Yrotation Zrotation
					JOINT RightToeBase
					{
						OFFSET -0.108140 -7.191069 7.372968
						CHANNELS 3 Xrotation Yrotation Zrotation
						JOINT RightToe_End
						{
							OFFSET -0.070227 0.081735 4.479403
							CHANNELS 3 Xrotation Yrotation Zrotation
							End Site
							{
								OFFSET 0 0 0
							}
						}
					}
				}
			}
		}
	}
	JOINT Spine_virtual
	{
		OFFSET 0.000000 0.000000 0.000000
		CHANNELS 3 Xrotation Yrotation Zrotation
		JOINT Spine
		{
			OFFSET 0.000000 6.876099 0.125700
			CHANNELS 3 Xrotation Yrotation Zrotation
			JOINT Spine1
			{
				OFFSET 0.000000 5.730043 0.104720
				CHANNELS 3 Xrotation Yrotation Zrotation
				JOINT Spine1_split
				{
					OFFSET 0.000000 5.730043 0.104720
					CHANNELS 3 Xrotation Yrotation Zrotation
					JOINT Spine2
					{
						OFFSET 0.000000 5.730043 0.104720
						CHANNELS 3 Xrotation Yrotation Zrotation
						JOINT Neck_virtual
						{
							OFFSET 0.000000 0.000000 0.000000
							CHANNELS 3 Xrotation Yrotation Zrotation
							JOINT Neck
							{
								OFFSET 0.000000 10.314075 0.188496
								CHANNELS 3 Xrotation Yrotation Zrotation
								JOINT Head
								{
									OFFSET 0.000000 7.643700 -2.377400
									CHANNELS 3 Xrotation Yrotation Zrotation
									JOINT HeadTop_End
									{
										OFFSET 0.000000 43.788605 -13.619600
										CHANNELS 3 Xrotation Yrotation Zrotation
										End Site
										{
											OFFSET 0 0 0
										}
									}
								}
							}
						}
						JOINT LeftShoulder_virtual
						{
							OFFSET 0.000000 0.000000 0.000000
							CHANNELS 3 Xrotation Yrotation Zrotation
							JOINT LeftShoulder
							{
								OFFSET 2.196100 4.412489 0.087492
								CHANNELS 3 Xrotation Yrotation Zrotation
								JOINT LeftShoulder_split
								{
									OFFSET 2.196100 4.412489 0.087492
									CHANNELS 3 Xrotation Yrotation Zrotation
									JOINT LeftArm
									{
										OFFSET 8.771219 -2.981674 -0.026999
										CHANNELS 3 Xrotation Yrotation Zrotation
										JOINT LeftForeArm
										{
											OFFSET 8.512804 0.000000 -0.000000
											CHANNELS 3 Xrotation Yrotation Zrotation
											JOINT LeftHand
											{
												OFFSET 18.484802 0.000000 -0.000000
												CHANNELS 3 Xrotation Yrotation Zrotation
												End Site
												{
													OFFSET 0 0 0
												}
											}
										}
									}
								}
							}
						}
						JOINT RightShoulder_virtual
						{
							OFFSET 0.000000 0.000000 0.000000
							CHANNELS 3 Xrotation Yrotation Zrotation
							JOINT RightShoulder
							{
								OFFSET -2.196100 4.412496 0.070690
								CHANNELS 3 Xrotation Yrotation Zrotation
								JOINT RightShoulder_split
								{
									OFFSET -2.196100 4.412496 0.070690
									CHANNELS 3 Xrotation Yrotation Zrotation
									JOINT RightArm
									{
										OFFSET -8.771282 -2.981682 -0.094208
										CHANNELS 3 Xrotation Yrotation Zrotation
										JOINT RightForeArm
										{
											OFFSET -8.494598 0.000000 0.000000
											CHANNELS 3 Xrotation Yrotation Zrotation
											JOINT RightHand
											{
												OFFSET -18.483803 0.000000 0.000001
												CHANNELS 3 Xrotation Yrotation Zrotation
												End Site
												{
													OFFSET 0 0 0
												}
											}
										}
									}
								}
							}
						}
					}
				}
			}
		}
	}
}
MOTION
Frames: 6
Frame Time: 0.03333333
1.826631 51.210964 5.061274 0.000000 0.000000 0.000000 14.424432 -16.523647 4.049122 -80.077998 -5.999616 31.033408 71.805827 -13.430371 7.092381 20.087166 4.204128 -15.963028 -8.984280 2.634422 -0.529742 0.000000 0.000000 0.000000 14.179687 -17.062700 3.912841 -114.097040 -20.946790 -4.672389 104.412610 15.973031 -1.539208 30.279052 17.653134 36.544043 -1.834466 -35.420248 -40.170586 0.000000 0.000000 0.000000 17.435958 -11.022921 4.121118 23.741992 0.843427 -10.197182 12.645857 -5.119347 -0.108551 0.261116 0.436145 -0.013082 0.000000 0.000000 0.000000 15.219893 -2.289912 -0.544028 2.792792 -5.683754 -8.135501 -25.548116 51.472832 -10.345335 0.000000 0.000000 0.000000 14.898219 -4.015656 -1.750024 10.867896 -9.548894 -6.719404 5.866356 -7.073957 -0.271548 -73.722446 -18.464899 3.395365 36.738239 -3.826854 17.128641 0.000000 0.000000 0.000000 18.557132 -2.628380 -0.691388 3.678433 21.646539 -6.987951 10.956062 5.085769 1.886741 -46.519923 -2.154727 3.662254 -53.513825 42.086615 26.541091 0.000000 0.000000 0.000000 
1.850711 51.181320 5.007543 0.000000 0.000000 0.000000 14.511638 -16.688529 4.095077 -80.147024 -6.112522 31.035037 71.905937 -13.518374 7.192675 20.207849 4.225850 -16.222451 -8.959396 2.579419 -0.540954 0.000000 0.000000 0.000000 14.225220 -17.173116 3.959797 -114.010166 -20.968250 -4.921441 104.169879 16.185221 -1.711668 30.243975 17.753209 36.599514 -1.704213 -35.442313 -40.190602 0.000000 0.000000 0.000000 17.417416 -11.182786 4.173997 23.563190 0.940795 -10.136481 12.658030 -5.068162 -0.092315 0.258818 0.460195 -0.014520 0.000000 0.000000 0.000000 15.270840 -2.251030 -0.582229 2.906832 -5.865866 -8.385574 -24.571518 50.728621 -11.172454 0.000000 0.000000 0.000000 14.900244 -3.997477 -1.800517 10.762212 -9.813105 -7.378658 5.880235 -7.169843 -0.409334 -72.717527 -18.028076 3.572113 36.848604 -3.976008 16.984555 0.000000 0.000000 0.000000 18.634913 -2.570113 -0.690696 3.537479 21.643258 -6.384071 10.719196 5.015458 2.080718 -45.253558 -1.862139 3.561903 -52.790030 41.865757 25.755650 0.000000 0.000000 0.000000 
1.870774 51.152069 4.946918 0.000000 0.000000 0.000000 14.609278 -16.803244 4.163543 -80.157413 -6.169989 31.028982 71.892071 -13.569580 7.214006 20.242174 4.329648 -16.381008 -8.961914 2.518693 -0.538902 0.000000 0.000000 0.000000 14.303445 -17.236703 4.024372 -113.851214 -20.979957 -5.174328 103.856742 16.398681 -1.904143 30.154298 17.821768 36.657041 -1.586702 -35.446592 -40.145328 0.000000 0.000000 0.000000 17.417172 -11.283548 4.230769 23.378991 1.025815 -10.085957 12.623303 -5.025073 -0.070582 0.258402 0.476889 -0.016627 0.000000 0.000000 0.000000 15.296519 -2.207092 -0.621853 2.962658 -6.075034 -8.641197 -23.721551 49.942982 -11.965338 0.000000 0.000000 0.000000 14.871897 -3.975618 -1.824109 10.709918 -9.981100 -7.869605 5.852949 -7.252958 -0.630628 -71.630298 -17.489591 3.946016 36.943749 -4.077401 16.839481 0.000000 0.000000 0.000000 18.661878 -2.518824 -0.694614 3.412612 21.519534 -5.809785 10.438228 5.024094 2.368446 -44.039362 -1.951683 3.315490 -52.227021 41.644073 25.157154 0.000000 0.000000 0.000000 
1.886763 51.125767 4.879066 0.000000 0.000000 0.000000 14.726002 -16.852100 4.258499 -80.109007 -6.160941 31.023047 71.741671 -13.597831 7.140704 20.171516 4.494856 -16.436229 -8.988016 2.452675 -0.501724 0.000000 0.000000 0.000000 14.404681 -17.254680 4.112067 -113.638884 -20.969676 -5.426453 103.504195 16.601859 -2.110128 30.022226 17.862200 36.725282 -1.458518 -35.441237 -40.039706 0.000000 0.000000 0.000000 17.423031 -11.326029 4.301997 23.205376 1.098714 -10.045105 12.541941 -4.985595 -0.048799 0.264647 0.486699 -0.012287 0.000000 0.000000 0.000000 15.288726 -2.152170 -0.669449 2.925236 -6.308359 -8.863462 -22.938506 49.190978 -12.800180 0.000000 0.000000 0.000000 14.805830 -3.941253 -1.825559 10.700615 -10.092328 -8.246060 5.779099 -7.292716 -0.917559 -70.526136 -16.783790 4.413443 37.088832 -4.182004 16.762225 0.000000 0.000000 0.000000 18.625823 -2.468001 -0.708433 3.298165 21.310216 -5.228560 10.226771 5.195789 2.668316 -42.964205 -2.328401 3.057173 -51.811797 41.437576 24.730240 0.000000 0.000000 0.000000 
1.893766 51.104191 4.811825 0.000000 0.000000 0.000000 14.846068 -16.834272 4.375660 -80.013767 -6.099523 31.020137 71.465820 -13.636659 6.978896 19.995032 4.670580 -16.439132 -9.010262 2.387098 -0.421306 0.000000 0.000000 0.000000 14.513262 -17.242263 4.223507 -113.412498 -20.921974 -5.680108 103.179051 16.788600 -2.324828 29.863851 17.883271 36.812462 -1.311318 -35.431323 -39.894824 0.000000 0.000000 0.000000 17.435943 -11.323889 4.388501 23.055756 1.164324 -10.008630 12.408223 -4.942937 -0.026788 0.271912 0.491344 -0.006179 0.000000 0.000000 0.000000 15.231477 -2.082116 -0.721436 2.789179 -6.553195 -9.040903 -22.135308 48.520745 -13.754036 0.000000 0.000000 0.000000 14.689194 -3.888719 -1.806898 10.711257 -10.171386 -8.601739 5.707014 -7.239311 -1.132089 -69.467696 -15.845759 4.924049 37.371001 -4.377824 16.816499 0.000000 0.000000 0.000000 18.523309 -2.410793 -0.733534 3.180844 21.053472 -4.622075 10.106824 5.478907 2.884995 -42.020475 -2.881494 2.816440 -51.540013 41.293906 24.462917 0.000000 0.000000 0.000000 
1.892957 51.088867 4.744486 0.000000 0.000000 0.000000 14.959673 -16.779521 4.505722 -79.895018 -5.999953 31.014284 71.109168 -13.705160 6.752986 19.745778 4.811645 -16.426637 -8.999086 2.327200 -0.302648 0.000000 0.000000 0.000000 14.617501 -17.204217 4.350398 -113.202483 -20.828576 -5.935346 102.911956 16.962773 -2.538988 29.692338 17.906796 36.933063 -1.159986 -35.416857 -39.749242 0.000000 0.000000 0.000000 17.455670 -11.314235 4.490496 22.937508 1.226418 -9.963190 12.228471 -4.898878 0.004029 0.282567 0.492954 0.004826 0.000000 0.000000 0.000000 15.112188 -2.003345 -0.767431 2.565933 -6.794903 -9.183507 -21.252289 47.983547 -14.835007 0.000000 0.000000 0.000000 14.516377 -3.816439 -1.767043 10.727143 -10.211065 -9.015033 5.605712 -7.145905 -1.216783 -68.492973 -14.653819 5.467064 37.824645 -4.709594 17.031790 0.000000 0.000000 0.000000 18.358765 -2.349876 -0.762192 3.051524 20.774077 -3.968217 10.106779 5.760262 2.922182 -41.203465 -3.545498 2.543537 -51.424187 41.276117 24.359559 0.000000 0.000000 0.000000 
